<?xml version="1.0" encoding="UTF-8"?>
<svg version="1.1" xmlns="http://www.w3.org/2000/svg" width="32" height="32">
<path d="M0 0 C2.21924573 0.9946725 3.44193971 1.83052782 4.84765625 3.828125 C4.4593739 7.52457294 2.77905797 9.24649097 0.16015625 11.765625 C-0.55527344 12.45527344 -1.27070313 13.14492188 -2.0078125 13.85546875 C-4.64953918 16.28547235 -7.34971657 18.58602326 -10.15234375 20.828125 C-10.72984375 20.498125 -11.30734375 20.168125 -11.90234375 19.828125 C-14.35118237 18.55736602 -14.35118237 18.55736602 -18.15234375 18.828125 C-18.81234375 19.488125 -19.47234375 20.148125 -20.15234375 20.828125 C-22.61083587 20.59020641 -23.9643699 19.964244 -25.96484375 18.515625 C-27.15234375 16.828125 -27.15234375 16.828125 -26.9453125 14.91796875 C-25.97079695 12.34966423 -24.80145069 11.38541773 -22.65234375 9.703125 C-19.96430535 7.62924819 -19.96430535 7.62924819 -18.15234375 4.828125 C-15.21530991 5.45748939 -12.81445747 6.45232673 -10.15234375 7.828125 C-9.35570312 6.94447266 -9.35570312 6.94447266 -8.54296875 6.04296875 C-7.8365625 5.29144531 -7.13015625 4.53992188 -6.40234375 3.765625 C-5.70625 3.01152344 -5.01015625 2.25742188 -4.29296875 1.48046875 C-2.15234375 -0.171875 -2.15234375 -0.171875 0 0 Z " fill="#6A08B7" transform="translate(27.15234375,5.171875)"/>
<path d="M0 0 C0.99 0.33 1.98 0.66 3 1 C-0.63 4.63 -4.26 8.26 -8 12 C-8.33 11.01 -8.66 10.02 -9 9 C-8.43410156 8.51789062 -7.86820312 8.03578125 -7.28515625 7.5390625 C-6.55167969 6.90742188 -5.81820313 6.27578125 -5.0625 5.625 C-4.33160156 4.99851562 -3.60070312 4.37203125 -2.84765625 3.7265625 C-0.91619094 2.12252286 -0.91619094 2.12252286 0 0 Z " fill="#711AB4" transform="translate(9,10)"/>
</svg>
